<svg width="24" height="25" viewBox="0 0 24 25" fill="none" xmlns="http://www.w3.org/2000/svg">
<path fill-rule="evenodd" clip-rule="evenodd" d="M11.9999 0.180664C5.38329 0.180664 0 5.56257 0 12.1806C0 18.7974 5.38329 24.1799 11.9999 24.1799C18.6166 24.1799 24 18.7974 24 12.1806C24 5.56257 18.6166 0.180664 11.9999 0.180664ZM18.6899 8.17869L11.3053 16.4864C11.1235 16.6903 10.8701 16.7954 10.6148 16.7954C10.4123 16.7954 10.2088 16.729 10.0385 16.5942L5.42298 12.9013C5.02512 12.5832 4.96059 12.0019 5.27904 11.6032C5.5971 11.2058 6.17855 11.1406 6.5764 11.4593L10.5073 14.6038L17.3099 6.95159C17.6478 6.56967 18.2321 6.53547 18.6129 6.87484C18.9941 7.21354 19.0287 7.79676 18.6899 8.17869Z" fill="#4C40F7"/>
</svg>
